<?xml version="1.0" encoding="utf-8"?>
<!-- Generator: Adobe Illustrator 25.3.1, SVG Export Plug-In . SVG Version: 6.00 Build 0)  -->
<svg version="1.1" id="Layer_1" xmlns="http://www.w3.org/2000/svg" xmlns:xlink="http://www.w3.org/1999/xlink" x="0px" y="0px"
	 viewBox="0 0 100 70" style="enable-background:new 0 0 100 70;" xml:space="preserve">
<style type="text/css">
	.st0{fill-rule:evenodd;clip-rule:evenodd;fill:#E7E9EB;stroke:#A5A8BC;stroke-width:0.5;}
	.st1{fill-rule:evenodd;clip-rule:evenodd;fill:#FFFFFF;}
	.st2{fill-rule:evenodd;clip-rule:evenodd;fill:#B6BBD6;}
	.st3{fill-rule:evenodd;clip-rule:evenodd;fill:#8084A7;}
	.st4{display:none;}
	.st5{display:inline;fill-rule:evenodd;clip-rule:evenodd;fill:#FFFFFF;}
	.st6{display:inline;fill:#56566F;}
	.st7{font-family:'OpenSans';}
	.st8{font-size:11px;}
	.st9{fill:#FFFFFF;}
	.st10{fill:#FF2116;}
	.st11{fill:#2C2C2C;}
</style>
<g id="_x32_-col--icon" transform="translate(198.000000, 207.000000)">
	<rect id="bg" x="-197.8" y="-206.8" class="st0" width="99.5" height="69.5"/>
	<g id="white" transform="translate(3.000000, 3.000000)">
		<rect id="Rectangle" x="-197.5" y="-205.5" class="st1" width="93" height="65"/>
	</g>
	<rect id="Rectangle_1_" x="-191.5" y="-200" class="st2" width="11" height="10"/>
	<rect id="Rectangle-Copy-18" x="-192" y="-188" class="st2" width="88" height="4"/>
	<rect id="Rectangle-Copy-18_1_" x="-192" y="-181" class="st2" width="88" height="4"/>
	<rect id="Rectangle-Copy-18_3_" x="-192" y="-174" class="st2" width="88" height="4"/>
	<rect id="Rectangle-Copy-18_2_" x="-192" y="-167" class="st2" width="88" height="4"/>
	<rect id="Rectangle-Copy-18_4_" x="-192" y="-160" class="st2" width="88" height="4"/>
	<rect id="Rectangle-Copy-18_5_" x="-192" y="-153" class="st2" width="88" height="4"/>
	<rect id="Rectangle-Copy-18_6_" x="-192" y="-146" class="st2" width="88" height="4"/>
	<rect id="Rectangle-Copy-18_7_" x="-192" y="-139" class="st3" width="88" height="2"/>
	<g>
		<g id="Surface">
			<g id="Document">
				<path class="st9" d="M-140.1-151.7c-1.9,0-3.5-1.5-3.5-3.4c0,0,0,0,0-0.1v-36.4c0-1.9,1.5-3.5,3.4-3.5c0,0,0,0,0.1,0h21.6
					c0.7,0,1.5,0.3,2,0.9l7.1,7.1c0.5,0.5,0.8,1.2,0.8,2v30c0,1.9-1.5,3.5-3.4,3.5c0,0,0,0-0.1,0H-140.1z"/>
				<path class="st10" d="M-118.5-194.4c0.6,0,1.1,0.2,1.5,0.6l7.1,7.1c0.4,0.4,0.6,0.9,0.6,1.5v30c0,1.5-1.3,2.8-2.8,2.8h-28
					c-1.5,0-2.8-1.3-2.8-2.8v-36.4c0-1.5,1.3-2.8,2.8-2.8L-118.5-194.4 M-118.5-195.8h-21.6c-2.3,0-4.2,1.9-4.2,4.2v36.4
					c0,2.3,1.9,4.2,4.2,4.2h28c2.3,0,4.2-1.9,4.2-4.2v-30c0-0.9-0.4-1.8-1.1-2.4l-7.1-7.1C-116.7-195.4-117.6-195.8-118.5-195.8
					L-118.5-195.8z"/>
			</g>
		</g>
		<g id="_256">
			<path class="st10" d="M-117.5-175.6c-0.3-0.3-0.7-0.5-1.2-0.6c-0.6-0.2-1.3-0.2-1.9-0.2c-0.4,0-0.9,0-1.3,0.1
				c-0.5,0-1,0.1-1.5,0.2c-0.3-0.3-0.6-0.6-0.9-0.9c-0.3-0.3-0.6-0.7-0.9-1.1c-0.2-0.3-0.4-0.6-0.6-0.9c-0.2-0.3-0.4-0.6-0.5-0.8
				c0.3-0.8,0.5-1.6,0.6-2.4c0.2-0.7,0.3-1.4,0.3-2c0-0.5-0.1-1-0.3-1.5c-0.2-0.5-0.7-0.9-1.3-0.9c-0.2,0-0.4,0-0.5,0.1
				c-0.2,0.1-0.3,0.2-0.4,0.4c-0.3,0.5-0.3,1.3-0.2,2.2c0.1,1.1,0.5,2.2,0.9,3.2c-0.2,0.5-0.4,1.1-0.6,1.6c-0.2,0.6-0.4,1.1-0.7,1.7
				c-0.2,0.5-0.4,1-0.7,1.5c-0.3,0.5-0.5,1-0.7,1.5c-1.2,0.5-2.4,1.1-3.5,1.8c-0.9,0.6-1.4,1.2-1.4,1.7c0,0.2,0,0.3,0,0.5
				c0.1,0.2,0.2,0.3,0.3,0.4c0.1,0.1,0.3,0.2,0.4,0.3c0.2,0.1,0.4,0.1,0.6,0.1c0.8,0,1.7-0.6,2.5-1.5c0.9-1,1.7-2.2,2.3-3.4
				c0.4-0.1,0.8-0.3,1.2-0.4s0.8-0.2,1.2-0.3c0.4-0.1,0.9-0.2,1.3-0.3c0.4-0.1,0.9-0.2,1.3-0.3c0.8,0.7,1.7,1.3,2.7,1.7
				c0.6,0.2,1.3,0.3,1.9,0.3c0.4,0,0.8,0,1.1-0.2c0.2-0.1,0.3-0.3,0.4-0.5c0.1-0.2,0.1-0.4,0-0.6
				C-117.3-175.4-117.3-175.5-117.5-175.6z M-127.5-185.9c0.1-0.1,0.2-0.2,0.3-0.3c0.1-0.1,0.2-0.1,0.3-0.1c0.2,0,0.5,0.1,0.6,0.3
				c0.2,0.3,0.2,0.6,0.2,0.9c0,0.6-0.1,1.1-0.2,1.6c-0.1,0.7-0.3,1.4-0.6,2.2c-0.4-0.9-0.7-1.9-0.8-2.9
				C-127.8-185-127.7-185.6-127.5-185.9z M-134.4-170.9c0.1-0.4,0.5-0.9,1.3-1.5c0.9-0.6,2-1.2,3-1.6c-0.6,1-1.2,2-2,2.8
				c-0.6,0.7-1.2,1-1.6,1c-0.1,0-0.2,0-0.2,0c-0.1,0-0.1-0.1-0.2-0.1c-0.1-0.1-0.1-0.2-0.2-0.3
				C-134.4-170.7-134.4-170.8-134.4-170.9z M-123.8-176.1c-0.4,0.1-0.8,0.1-1.2,0.2c-0.4,0.1-0.8,0.2-1.2,0.3
				c-0.3,0.1-0.7,0.2-1,0.3c-0.3,0.1-0.7,0.2-1,0.3c0.2-0.4,0.4-0.7,0.6-1.1c0.2-0.3,0.3-0.7,0.4-1c0.2-0.4,0.3-0.8,0.5-1.2
				s0.3-0.8,0.4-1.2c0.1,0.3,0.3,0.5,0.4,0.7c0.2,0.3,0.3,0.5,0.5,0.7c0.3,0.3,0.5,0.7,0.8,1C-124.3-176.7-124-176.4-123.8-176.1
				L-123.8-176.1z M-123.1-175.9c0.8-0.1,1.5-0.2,2.3-0.2c0.5,0,1,0,1.5,0.1c0.3,0,0.5,0.2,0.7,0.4c0.2,0.2,0.2,0.5,0.2,0.7
				c0,0.3-0.3,0.5-0.5,0.6c-0.3,0.1-0.7,0.2-1,0.1c-0.6-0.2-1.2-0.4-1.7-0.7C-122.2-175.2-122.6-175.5-123.1-175.9L-123.1-175.9z"/>
		</g>
		<path class="st11" d="M-133.2-163.7L-133.2-163.7L-133.2-163.7C-133.2-163.7-133.2-163.7-133.2-163.7L-133.2-163.7
			c0.1-0.1,0.3-0.1,0.4-0.1h0.4h0.4h0.4c0.4,0,0.7,0,1.1,0.2c0.3,0.1,0.5,0.2,0.7,0.4c0.2,0.2,0.3,0.4,0.4,0.6
			c0.1,0.3,0.1,0.5,0.1,0.8c0,0.3-0.1,0.7-0.2,1c-0.1,0.3-0.3,0.5-0.5,0.7s-0.5,0.3-0.8,0.4c-0.3,0.1-0.6,0.1-0.9,0.1h-0.1h-0.1
			h-0.1h-0.1v2.3c0,0,0,0,0,0v0c0,0,0,0,0,0h0h-0.9h0c0,0,0,0,0,0v0v-4.8L-133.2-163.7z M-132.1-160.5L-132.1-160.5h0.5
			c0.2,0,0.3,0,0.5,0c0.2,0,0.3-0.1,0.4-0.2c0.1-0.1,0.2-0.2,0.3-0.4c0.1-0.2,0.1-0.4,0.1-0.6c0-0.2,0-0.3-0.1-0.5
			c0-0.1-0.1-0.3-0.3-0.4c-0.1-0.1-0.3-0.2-0.4-0.2c-0.2,0-0.3-0.1-0.5-0.1h-0.2h-0.2h-0.1c0,0-0.1,0-0.1,0V-160.5L-132.1-160.5z"/>
		<path class="st11" d="M-128.2-163.7L-128.2-163.7L-128.2-163.7L-128.2-163.7L-128.2-163.7l0.3-0.1h0.4c0.1,0,0.3,0,0.4,0h0.5
			c0.4,0,0.9,0.1,1.3,0.2c0.3,0.1,0.7,0.4,0.9,0.6c0.3,0.3,0.4,0.6,0.6,1c0.1,0.4,0.2,0.9,0.2,1.3c0,0.6-0.1,1.1-0.3,1.6
			c-0.3,0.8-0.9,1.4-1.7,1.6c-0.3,0.1-0.7,0.2-1,0.2h-0.4h-0.4h-0.4c-0.1,0-0.2,0-0.3,0h0c0,0,0,0,0,0v0v0V-163.7L-128.2-163.7z
			 M-127.1-158.2h0.1h0.1h0.1h0.1c0.3,0,0.5,0,0.8-0.1c0.2-0.1,0.4-0.3,0.6-0.4c0.2-0.2,0.3-0.5,0.4-0.8c0.1-0.3,0.2-0.7,0.1-1.1
			c0-0.3,0-0.7-0.1-1c-0.1-0.3-0.2-0.5-0.4-0.7c-0.2-0.2-0.4-0.3-0.6-0.4c-0.2-0.1-0.5-0.1-0.7-0.1h-0.2h-0.1h-0.1c0,0-0.1,0-0.1,0
			L-127.1-158.2L-127.1-158.2z"/>
		<path class="st11" d="M-121.4-157.3C-121.4-157.3-121.4-157.3-121.4-157.3C-121.4-157.3-121.4-157.2-121.4-157.3L-121.4-157.3
			L-121.4-157.3l-1,0.1h0h0v0c0,0,0,0,0,0v-6.4v0v0c0,0,0,0,0,0h3.3c0,0,0,0,0,0c0,0,0,0,0,0v0l0,0.2l0,0.2l0,0.2l0,0.2v0
			c0,0,0,0,0,0c0,0,0,0,0,0h0h-2.3v1.9h2.1h0c0,0,0,0,0,0c0,0,0,0,0,0v0.8c0,0,0,0,0,0c0,0,0,0,0,0h0h-2.1L-121.4-157.3
			L-121.4-157.3z"/>
	</g>
</g>
</svg>
